{"title":"The Body Snatcher (1945) Bela Lugosi, Boris Karloff  (Val Lewton","uid":9617974,"size":1308513176,"categoryP":"video","categoryS":"movies","magnet":"?xt=urn:btih:7922d2a505c981af22871978984d5f4a6dded601&amp;dn=The+Body+Snatcher+%281945%29+Bela+Lugosi%2C+Boris+Karloff++%28Val+Lewton&amp;tr=udp%3A%2F%2Ftracker.openbittorrent.com%3A80&amp;tr=udp%3A%2F%2Fopen.demonii.com%3A1337&amp;tr=udp%3A%2F%2Ftracker.coppersurfer.tk%3A6969&amp;tr=udp%3A%2F%2Fexodus.desync.com%3A6969","seeders":2,"leechers":0,"uploader":"mago1974","files":2,"time":1392444166,"description":"General\nUnique ID                      : 225182164903124083937308980826579969261 (0xA96881E71F2711CD829F5150E998A4ED)\nComplete name                  : F:Americanos 11942-1946. Val LewtonÂ´s Horrors1945. The Body SnatcherThe Body Snatcher (1945) Bela Lugosi, Boris Karloff  (Val Lewton film) (DVDRip) ( illusions ).mkv\nFormat                         : Matroska\nFormat version                 : Version 2\nFile size                      : 1.22 GiB\nDuration                       : 1h 18mn\nOverall bit rate               : 2 233 Kbps\nEncoded date                   : UTC 2013-11-02 01:25:19\nWriting application            : mkvmerge v6.2.0 ('Promised Land') built on Apr 28 2013 12:22:01\nWriting library                : libebml v1.3.0 + libmatroska v1.4.0\n\nVideo\nID                             : 1\nFormat                         : AVC\nFormat/Info                    : Advanced Video Codec\nFormat profile                 : &lt;a class=&quot;__cf_email__&quot; href=&quot;/cdn-cgi/l/email-protection&quot; data-cfemail=&quot;ffb7969897bfb3ccd1ce&quot;&gt;[email&amp;#160;protected]&lt;/a&gt;&lt;script cf-hash='f9e31' type=&quot;text/javascript&quot;&gt;\n/* &lt;![CDATA[ */!function(){try{var t=&quot;currentScript&quot;in document?document.currentScript:function(){for(var t=document.getElementsByTagName(&quot;script&quot;),e=t.length;e--;)if(t[e].getAttribute(&quot;cf-hash&quot;))return t[e]}();if(t&amp;&amp;t.previousSibling){var e,r,n,i,c=t.previousSibling,a=c.getAttribute(&quot;data-cfemail&quot;);if(a){for(e=&quot;&quot;,r=parseInt(a.substr(0,2),16),n=2;a.length-n;n+=2)i=parseInt(a.substr(n,2),16)^r,e+=String.fromCharCode(i);e=document.createTextNode(e),c.parentNode.replaceChild(e,c)}}}catch(u){}}();/* ]]&gt; */&lt;/script&gt;\nFormat settings, CABAC         : Yes\nFormat settings, ReFrames      : 9 frames\nCodec ID                       : V_MPEG4/ISO/AVC\nBit rate                       : 1 845 Kbps\nWidth                          : 640 pixels\nHeight                         : 480 pixels\nDisplay aspect ratio           : 4:3\nFrame rate mode                : Variable\nOriginal frame rate            : 23.976 fps\nColor space                    : YUV\nChroma subsampling             : 4:2:0\nBit depth                      : 8 bits\nScan type                      : Progressive\nBits/(Pixel*Frame)             : 0.250\nWriting library                : x264 core 133 r2334 a3ac64b\nEncoding settings              : cabac=1 / ref=9 / deblock=1:0:0 / analyse=0x3:0x133 / me=hex / subme=7 / psy=1 / psy_rd=1.00:0.00 / mixed_ref=1 / me_range=16 / chroma_me=1 / trellis=1 / 8x8dct=1 / cqm=0 / deadzone=21,11 / fast_pskip=1 / chroma_qp_offset=-2 / threads=6 / lookahead_threads=1 / sliced_threads=0 / nr=0 / decimate=1 / interlaced=0 / bluray_compat=0 / constrained_intra=0 / bframes=6 / b_pyramid=2 / b_adapt=1 / b_bias=0 / direct=1 / weightb=1 / open_gop=0 / weightp=2 / keyint=230 / keyint_min=22 / scenecut=40 / intra_refresh=0 / rc_lookahead=40 / rc=2pass / mbtree=1 / bitrate=1845 / ratetol=1.0 / qcomp=0.60 / qpmin=0 / qpmax=69 / qpstep=4 / cplxblur=20.0 / qblur=0.5 / vbv_maxrate=14000 / vbv_bufsize=14000 / nal_hrd=none / ip_ratio=1.40 / aq=1:1.00\nLanguage                       : English\nDefault                        : Yes\nForced                         : No\n\nAudio #1\nID                             : 2\nFormat                         : AC-3\nFormat/Info                    : Audio Coding 3\nMode extension                 : CM (complete main)\nFormat settings, Endianness    : Big\nCodec ID                       : A_AC3\nDuration                       : 1h 18mn\nBit rate mode                  : Constant\nBit rate                       : 192 Kbps\nChannel count                  : 1 channel\nChannel positions              : Front: C\nSampling rate                  : 48.0 KHz\nBit depth                      : 16 bits\nCompression mode               : Lossy\nDelay relative to video        : 7ms\nStream size                    : 107 MiB (9%)\nLanguage                       : English\nDefault                        : Yes\nForced                         : No\n\nAudio #2\nID                             : 3\nFormat                         : AC-3\nFormat/Info                    : Audio Coding 3\nMode extension                 : CM (complete main)\nFormat settings, Endianness    : Big\nCodec ID                       : A_AC3\nDuration                       : 1h 18mn\nBit rate mode                  : Constant\nBit rate                       : 192 Kbps\nChannel count                  : 2 channels\nChannel positions              : Front: L R\nSampling rate                  : 48.0 KHz\nBit depth                      : 16 bits\nCompression mode               : Lossy\nDelay relative to video        : 7ms\nStream size                    : 107 MiB (9%)\nTitle                          : Commentary\nLanguage                       : English\nDefault                        : No\nForced                         : No\n\nText\nID                             : 4\nFormat                         : VobSub\nMuxing mode                    : zlib\nCodec ID                       : S_VOBSUB\nCodec ID/Info                  : The same subtitle format used on DVDs\nLanguage                       : English\nDefault                        : Yes\nForced                         : No\n\nMenu\n00:00:00.000                   : en:Chapter 01\n00:01:22.767                   : en:Chapter 02\n00:04:32.767                   : en:Chapter 03\n00:09:49.267                   : en:Chapter 04\n00:11:15.767                   : en:Chapter 05\n00:16:31.401                   : en:Chapter 06\n00:21:56.068                   : en:Chapter 07\n00:25:54.568                   : en:Chapter 08\n00:28:08.068                   : en:Chapter 09\n00:31:16.268                   : en:Chapter 10\n00:33:52.768                   : en:Chapter 11\n00:37:20.402                   : en:Chapter 12\n00:39:08.270                   : en:Chapter 13\n00:40:34.871                   : en:Chapter 14\n00:42:49.105                   : en:Chapter 15\n00:45:00.572                   : en:Chapter 16\n00:48:14.906                   : en:Chapter 17\n00:53:51.573                   : en:Chapter 18\n00:57:26.107                   : en:Chapter 19\n01:00:50.240                   : en:Chapter 20\n01:03:36.074                   : en:Chapter 21\n01:06:55.408                   : en:Chapter 22\n01:10:52.575                   : en:Chapter 23\n01:13:08.742                   : en:Chapter 24\n","torrent":{"xt":"urn:btih:7922d2a505c981af22871978984d5f4a6dded601","amp;dn":"The+Body+Snatcher+%281945%29+Bela+Lugosi%2C+Boris+Karloff++%28Val+Lewton","amp;tr":["udp%3A%2F%2Ftracker.openbittorrent.com%3A80","udp%3A%2F%2Fopen.demonii.com%3A1337","udp%3A%2F%2Ftracker.coppersurfer.tk%3A6969","udp%3A%2F%2Fexodus.desync.com%3A6969"],"infoHash":"7922d2a505c981af22871978984d5f4a6dded601","infoHashBuffer":{"type":"Buffer","data":[121,34,210,165,5,201,129,175,34,135,25,120,152,77,95,74,109,222,214,1]},"announce":[],"urlList":[]}}